<?xml version="1.0" encoding="utf-8"?>
<svg viewBox="0 8.117 516.814 95.294" xmlns="http://www.w3.org/2000/svg" xmlns:bx="https://boxy-svg.com">
  <path style="stroke: rgb(255, 0, 247); stroke-width: 2px; fill: rgba(216, 216, 216, 0);" d="M 4.657 66.357 C 4.657 66.357 17.849 10.478 34.638 65.775 C 51.427 121.072 65.518 63.446 65.518 63.446"/>
  <path style="stroke: rgb(255, 0, 247); stroke-width: 2px; fill: rgba(216, 216, 216, 0);" d="M 64.469 67.158 C 64.469 67.158 77.661 11.279 94.45 66.576 C 111.239 121.873 125.33 64.247 125.33 64.247"/>
  <path style="stroke: rgb(255, 0, 247); stroke-width: 2px; fill: rgba(216, 216, 216, 0);" d="M 125.106 65.012 C 125.106 65.012 138.298 9.133 155.087 64.43 C 171.877 119.727 185.968 62.101 185.968 62.101"/>
  <path style="stroke: rgb(255, 0, 247); stroke-width: 2px; fill: rgba(216, 216, 216, 0);" d="M 184.918 65.813 C 184.918 65.813 198.11 9.934 214.899 65.231 C 231.689 120.528 245.78 62.902 245.78 62.902"/>
  <path style="stroke: rgb(255, 0, 247); stroke-width: 2px; fill: rgba(216, 216, 216, 0);" d="M 244.98 65.102 C 244.98 65.102 258.172 9.223 274.961 64.52 C 291.75 119.817 305.841 62.191 305.841 62.191"/>
  <path style="stroke: rgb(255, 0, 247); stroke-width: 2px; fill: rgba(216, 216, 216, 0);" d="M 304.792 65.903 C 304.792 65.903 317.984 10.024 334.773 65.321 C 351.562 120.618 365.653 62.992 365.653 62.992"/>
  <path style="stroke: rgb(255, 0, 247); stroke-width: 2px; fill: rgba(216, 216, 216, 0);" d="M 365.429 63.757 C 365.429 63.757 378.621 7.878 395.41 63.175 C 412.2 118.472 426.291 60.846 426.291 60.846"/>
  <path style="stroke: rgb(255, 0, 247); stroke-width: 2px; fill: rgba(216, 216, 216, 0);" d="M 425.241 64.558 C 425.241 64.558 438.433 8.679 455.222 63.976 C 472.012 119.273 486.103 61.647 486.103 61.647"/>
  <g>
    <path style="stroke: rgb(255, 0, 247); stroke-width: 2px;" d="M 511.944 75.275 C 500.914 64.689 493.324 55.691 491.127 51.456 C 488.906 47.175 488.553 40.498 492.634 36.921 C 495.14 34.724 497.908 32.552 501.869 33.134 C 505.764 33.707 509.577 36.201 511.995 40.463" transform="matrix(-0.918429, -0.395585, 0.395585, -0.918429, 939.222441, 301.983346)"/>
    <path style="stroke: rgb(255, 0, 247); stroke-width: 2px;" d="M 492.446 24.582 C 481.618 35.168 474.166 44.166 472.01 48.401 C 469.829 52.682 469.483 59.359 473.489 62.936 C 475.949 65.133 478.666 67.305 482.555 66.722 C 486.379 66.15 490 64.022 492.373 59.76" transform="matrix(0.918429, 0.395585, -0.395585, 0.918429, 57.348638, -186.717892)"/>
  </g>
  <g transform="matrix(0.459186, 0, 0, 0.459186, 18.566813, 45.668758)" style="">
    <path style="stroke: rgb(255, 0, 247); stroke-width: 2px;" d="M 511.944 75.275 C 500.914 64.689 493.324 55.691 491.127 51.456 C 488.906 47.175 488.553 40.498 492.634 36.921 C 495.14 34.724 497.908 32.552 501.869 33.134 C 505.764 33.707 509.577 36.201 511.995 40.463" transform="matrix(-0.918429, -0.395585, 0.395585, -0.918429, 939.222441, 301.983346)"/>
    <path style="stroke: rgb(255, 0, 247); stroke-width: 2px;" d="M 492.446 24.582 C 481.618 35.168 474.166 44.166 472.01 48.401 C 469.829 52.682 469.483 59.359 473.489 62.936 C 475.949 65.133 478.666 67.305 482.555 66.722 C 486.379 66.15 490 64.022 492.373 59.76" transform="matrix(0.918429, 0.395585, -0.395585, 0.918429, 57.348638, -186.717892)"/>
  </g>
  <g transform="matrix(0.459186, 0, 0, 0.459186, 141.293564, 31.755041)" style="">
    <path style="stroke: rgb(255, 0, 247); stroke-width: 2px;" d="M 511.944 75.275 C 500.914 64.689 493.324 55.691 491.127 51.456 C 488.906 47.175 488.553 40.498 492.634 36.921 C 495.14 34.724 497.908 32.552 501.869 33.134 C 505.764 33.707 509.577 36.201 511.995 40.463" transform="matrix(-0.918429, -0.395585, 0.395585, -0.918429, 939.222441, 301.983346)"/>
    <path style="stroke: rgb(255, 0, 247); stroke-width: 2px;" d="M 492.446 24.582 C 481.618 35.168 474.166 44.166 472.01 48.401 C 469.829 52.682 469.483 59.359 473.489 62.936 C 475.949 65.133 478.666 67.305 482.555 66.722 C 486.379 66.15 490 64.022 492.373 59.76" transform="matrix(0.918429, 0.395585, -0.395585, 0.918429, 57.348638, -186.717892)"/>
  </g>
  <g transform="matrix(-0.309321, 0.339371, -0.339371, -0.309321, 260.845123, -92.487846)" style="">
    <path style="stroke: rgb(255, 0, 247); stroke-width: 2px;" d="M 511.944 75.275 C 500.914 64.689 493.324 55.691 491.127 51.456 C 488.906 47.175 488.553 40.498 492.634 36.921 C 495.14 34.724 497.908 32.552 501.869 33.134 C 505.764 33.707 509.577 36.201 511.995 40.463" transform="matrix(-0.918429, -0.395585, 0.395585, -0.918429, 939.222441, 301.983346)"/>
    <path style="stroke: rgb(255, 0, 247); stroke-width: 2px;" d="M 492.446 24.582 C 481.618 35.168 474.166 44.166 472.01 48.401 C 469.829 52.682 469.483 59.359 473.489 62.936 C 475.949 65.133 478.666 67.305 482.555 66.722 C 486.379 66.15 490 64.022 492.373 59.76" transform="matrix(0.918429, 0.395585, -0.395585, 0.918429, 57.348638, -186.717892)"/>
  </g>
  <path d="M 552 356.709 L 560.062 379.903 L 584.613 380.403 L 565.045 395.239 L 572.156 418.742 L 552 404.716 L 531.844 418.742 L 538.955 395.239 L 519.387 380.403 L 543.938 379.903 Z" style="stroke: rgb(255, 0, 242);" transform="matrix(-0.761243, 0.648466, -0.648466, -0.761243, 716.890207, -13.771411)" bx:shape="star 552 391 34.291 34.291 0.4 5 1@0adbeec2"/>
  <path d="M 766 436.558 L 767.985 442.268 L 774.029 442.391 L 769.212 446.043 L 770.962 451.83 L 766 448.377 L 761.038 451.83 L 762.788 446.043 L 757.971 442.391 L 764.015 442.268 Z" style="stroke: rgb(255, 0, 242);" transform="matrix(0.916157, -0.400819, 0.400819, 0.916157, -733.559338, -28.023109)" bx:shape="star 766 445 8.442 8.442 0.4 5 1@6d79c20e"/>
  <path d="M 799 316.881 L 803.26 329.137 L 816.232 329.401 L 805.893 337.24 L 809.65 349.659 L 799 342.248 L 788.35 349.659 L 792.107 337.24 L 781.768 329.401 L 794.74 329.137 Z" style="stroke: rgb(255, 0, 242);" transform="matrix(-0.72032, 0.693642, -0.693642, -0.72032, 969.956151, -274.594296)" bx:shape="star 799 335 18.119 18.119 0.4 5 1@049e26b4"/>
  <path d="M 983 466.814 L 984.69 471.675 L 989.834 471.779 L 985.734 474.888 L 987.224 479.814 L 983 476.874 L 978.776 479.814 L 980.266 474.888 L 976.166 471.779 L 981.31 471.675 Z" style="stroke: rgb(255, 0, 242);" transform="matrix(-0.672673, 0.73994, -0.73994, -0.672673, 1263.448682, -321.85582)" bx:shape="star 983 474 7.186 7.186 0.4 5 1@0700f728"/>
  <path d="M 1044 380.259 L 1047.231 389.553 L 1057.068 389.754 L 1049.227 395.698 L 1052.077 405.117 L 1044 399.496 L 1035.923 405.117 L 1038.773 395.698 L 1030.932 389.754 L 1040.769 389.553 Z" style="stroke: rgb(255, 0, 242);" transform="matrix(-0.773957, 0.633238, -0.633238, -0.773957, 1338.474436, -308.174913)" bx:shape="star 1044 394 13.741 13.741 0.4 5 1@887a24aa"/>
  <path d="M 1109 404.303 L 1115.277 422.361 L 1134.39 422.75 L 1119.156 434.3 L 1124.692 452.598 L 1109 441.679 L 1093.308 452.598 L 1098.844 434.3 L 1083.61 422.75 L 1102.723 422.361 Z" style="stroke: rgb(255, 0, 242);" transform="matrix(-0.742393, 0.669964, -0.669964, -0.742393, 1424.457064, -357.147137)" bx:shape="star 1109 431 26.697 26.697 0.4 5 1@ae6b6700"/>
  <path d="M 1188 349.621 L 1189.735 354.612 L 1195.018 354.72 L 1190.807 357.912 L 1192.337 362.97 L 1188 359.952 L 1183.663 362.97 L 1185.193 357.912 L 1180.982 354.72 L 1186.265 354.612 Z" style="stroke: rgb(255, 0, 242);" transform="matrix(-0.851658, 0.524097, -0.524097, -0.851658, 1549.450071, -288.485367)" bx:shape="star 1188 357 7.379 7.379 0.4 5 1@6175e049"/>
  <path d="M 1290 362.466 L 1292.242 368.915 L 1299.067 369.054 L 1293.627 373.178 L 1295.604 379.713 L 1290 375.814 L 1284.396 379.713 L 1286.373 373.178 L 1280.933 369.054 L 1287.758 368.915 Z" style="stroke: rgb(255, 0, 242);" transform="matrix(-0.861934, 0.50702, -0.50702, -0.861934, 1700.390723, -296.065091)" bx:shape="star 1290 372 9.534 9.534 0.4 5 1@950c44d0"/>
  <path d="M 1365 400.531 L 1370.518 416.405 L 1387.32 416.748 L 1373.928 426.901 L 1378.795 442.987 L 1365 433.388 L 1351.205 442.987 L 1356.072 426.901 L 1342.68 416.748 L 1359.482 416.405 Z" style="stroke: rgb(255, 0, 242);" transform="matrix(-0.844509, 0.535542, -0.535542, -0.844509, 1815.963397, -310.454961)" bx:shape="star 1365 424 23.469 23.469 0.4 5 1@c4125705"/>
</svg>